<svg width="279" height="39" viewBox="0 0 279 39" fill="none" xmlns="http://www.w3.org/2000/svg">
<path d="M17.118 0.739997V38H10.368V10.244C10.368 9.632 10.386 9.02 10.422 8.408C10.458 7.796 10.548 7.184 10.692 6.572L1.728 9.056L0.864 4.52L10.368 0.739997H17.118ZM55.8883 0.739997V38H49.1383V10.244C49.1383 9.632 49.1563 9.02 49.1923 8.408C49.2283 7.796 49.3183 7.184 49.4623 6.572L40.4983 9.056L39.6343 4.52L49.1383 0.739997H55.8883ZM78.0266 0.0379995C81.4466 0.0379995 84.1466 0.685999 86.1266 1.982C88.1426 3.242 89.5826 5.294 90.4466 8.138C91.3466 10.982 91.7966 14.726 91.7966 19.37C91.7966 24.014 91.3466 27.758 90.4466 30.602C89.5826 33.446 88.1426 35.516 86.1266 36.812C84.1466 38.072 81.4466 38.702 78.0266 38.702C74.6066 38.702 71.8886 38.072 69.8726 36.812C67.8926 35.516 66.4706 33.446 65.6066 30.602C64.7426 27.758 64.3106 24.014 64.3106 19.37C64.3106 14.726 64.7426 10.982 65.6066 8.138C66.4706 5.294 67.8926 3.242 69.8726 1.982C71.8886 0.685999 74.6066 0.0379995 78.0266 0.0379995ZM78.0266 5.492C76.2266 5.492 74.8046 5.924 73.7606 6.788C72.7526 7.616 72.0326 9.038 71.6006 11.054C71.2046 13.07 71.0066 15.842 71.0066 19.37C71.0066 22.898 71.2046 25.67 71.6006 27.686C72.0326 29.702 72.7526 31.142 73.7606 32.006C74.8046 32.834 76.2266 33.248 78.0266 33.248C79.8266 33.248 81.2306 32.834 82.2386 32.006C83.2826 31.142 84.0206 29.702 84.4526 27.686C84.8846 25.67 85.1006 22.898 85.1006 19.37C85.1006 15.842 84.8846 13.07 84.4526 11.054C84.0206 9.038 83.2826 7.616 82.2386 6.788C81.2306 5.924 79.8266 5.492 78.0266 5.492ZM118.372 0.739997C119.632 0.739997 120.532 1.118 121.072 1.874C121.648 2.594 121.738 3.53 121.342 4.682L109.84 38H103.198L113.134 9.488C113.314 8.948 113.512 8.408 113.728 7.868C113.944 7.328 114.214 6.806 114.538 6.302H96.7722L96.5022 0.739997H118.372Z" fill="#363738"/>
<path d="M144.74 28.18V38H142.36V29.94H138.1V38H135.74V28.18H144.74ZM151.958 27.94C153.145 27.94 154.091 28.1067 154.798 28.44C155.518 28.7733 156.031 29.32 156.338 30.08C156.658 30.84 156.818 31.8467 156.818 33.1C156.818 34.3533 156.658 35.36 156.338 36.12C156.031 36.88 155.518 37.4267 154.798 37.76C154.091 38.0933 153.145 38.26 151.958 38.26C150.758 38.26 149.798 38.0933 149.078 37.76C148.371 37.4267 147.858 36.88 147.538 36.12C147.218 35.36 147.058 34.3533 147.058 33.1C147.058 31.8467 147.218 30.84 147.538 30.08C147.858 29.32 148.371 28.7733 149.078 28.44C149.798 28.1067 150.758 27.94 151.958 27.94ZM151.958 29.78C151.358 29.78 150.885 29.88 150.538 30.08C150.191 30.2667 149.945 30.6 149.798 31.08C149.665 31.56 149.598 32.2333 149.598 33.1C149.598 33.9667 149.665 34.64 149.798 35.12C149.945 35.6 150.191 35.9333 150.538 36.12C150.885 36.3067 151.358 36.4 151.958 36.4C152.545 36.4 153.005 36.3067 153.338 36.12C153.685 35.9333 153.925 35.6 154.058 35.12C154.205 34.64 154.278 33.9667 154.278 33.1C154.278 32.2333 154.205 31.56 154.058 31.08C153.925 30.6 153.685 30.2667 153.338 30.08C153.005 29.88 152.545 29.78 151.958 29.78ZM167.821 28.18V38H165.401V29.92H163.741C163.368 29.92 163.095 30.0067 162.921 30.18C162.761 30.34 162.661 30.6133 162.621 31C162.515 31.84 162.401 32.6933 162.281 33.56C162.161 34.4267 162.001 35.1667 161.801 35.78C161.575 36.6733 161.135 37.3 160.481 37.66C159.841 38.02 159.075 38.1667 158.181 38.1L157.921 36.3C158.428 36.1933 158.808 36.06 159.061 35.9C159.315 35.7267 159.508 35.46 159.641 35.1C159.761 34.74 159.868 34.3067 159.961 33.8C160.055 33.2933 160.135 32.76 160.201 32.2C160.268 31.6267 160.321 31.08 160.361 30.56C160.455 29.7733 160.701 29.18 161.101 28.78C161.515 28.38 162.135 28.18 162.961 28.18H167.821ZM174.823 31.78C175.917 31.78 176.77 31.88 177.383 32.08C178.01 32.2667 178.45 32.5933 178.703 33.06C178.97 33.5133 179.103 34.14 179.103 34.94C179.103 35.7667 178.97 36.4133 178.703 36.88C178.437 37.3333 178.017 37.6533 177.443 37.84C176.87 38.0267 176.123 38.12 175.203 38.12C174.51 38.12 173.91 38.1133 173.403 38.1C172.897 38.1 172.43 38.0867 172.003 38.06C171.577 38.0467 171.137 38.0267 170.683 38H170.603V28.18H172.963V31.78H174.823ZM174.823 33.34H172.963V36.38C173.51 36.3933 174.13 36.4 174.823 36.4C175.517 36.4 175.997 36.3 176.263 36.1C176.53 35.9 176.663 35.4867 176.663 34.86C176.663 34.2733 176.537 33.8733 176.283 33.66C176.043 33.4467 175.557 33.34 174.823 33.34ZM184.049 28C185.169 28 186.069 28.0667 186.749 28.2C187.443 28.3333 187.943 28.5933 188.249 28.98C188.556 29.3533 188.709 29.9067 188.709 30.64C188.709 31.36 188.549 31.9067 188.229 32.28C187.923 32.64 187.383 32.8533 186.609 32.92V32.98C187.489 33.0467 188.116 33.2933 188.489 33.72C188.876 34.1333 189.069 34.7533 189.069 35.58C189.069 36.3 188.916 36.8533 188.609 37.24C188.303 37.6133 187.823 37.8667 187.169 38C186.516 38.1333 185.683 38.2 184.669 38.2C184.003 38.2 183.309 38.1733 182.589 38.12C181.883 38.08 181.189 37.9933 180.509 37.86L180.669 36.16C181.243 36.2133 181.869 36.26 182.549 36.3C183.229 36.3267 183.883 36.34 184.509 36.34C185.309 36.34 185.856 36.26 186.149 36.1C186.443 35.94 186.589 35.6 186.589 35.08C186.589 34.5867 186.443 34.2533 186.149 34.08C185.856 33.9067 185.316 33.82 184.529 33.82L181.889 33.8V32.24L184.509 32.2C185.216 32.1867 185.696 32.1067 185.949 31.96C186.203 31.8 186.329 31.48 186.329 31C186.329 30.5333 186.176 30.2333 185.869 30.1C185.563 29.9533 184.989 29.88 184.149 29.88C183.576 29.88 183.003 29.9 182.429 29.94C181.869 29.9667 181.376 30.0067 180.949 30.06L180.769 28.36C181.369 28.2 181.963 28.1 182.549 28.06C183.136 28.02 183.636 28 184.049 28ZM195.767 27.94C196.953 27.94 197.9 28.1067 198.607 28.44C199.327 28.7733 199.84 29.32 200.147 30.08C200.467 30.84 200.627 31.8467 200.627 33.1C200.627 34.3533 200.467 35.36 200.147 36.12C199.84 36.88 199.327 37.4267 198.607 37.76C197.9 38.0933 196.953 38.26 195.767 38.26C194.567 38.26 193.607 38.0933 192.887 37.76C192.18 37.4267 191.667 36.88 191.347 36.12C191.027 35.36 190.867 34.3533 190.867 33.1C190.867 31.8467 191.027 30.84 191.347 30.08C191.667 29.32 192.18 28.7733 192.887 28.44C193.607 28.1067 194.567 27.94 195.767 27.94ZM195.767 29.78C195.167 29.78 194.693 29.88 194.347 30.08C194 30.2667 193.753 30.6 193.607 31.08C193.473 31.56 193.407 32.2333 193.407 33.1C193.407 33.9667 193.473 34.64 193.607 35.12C193.753 35.6 194 35.9333 194.347 36.12C194.693 36.3067 195.167 36.4 195.767 36.4C196.353 36.4 196.813 36.3067 197.147 36.12C197.493 35.9333 197.733 35.6 197.867 35.12C198.013 34.64 198.087 33.9667 198.087 33.1C198.087 32.2333 198.013 31.56 197.867 31.08C197.733 30.6 197.493 30.2667 197.147 30.08C196.813 29.88 196.353 29.78 195.767 29.78ZM207.387 28.08C208.427 28.08 209.253 28.1533 209.867 28.3C210.493 28.4467 210.94 28.7133 211.207 29.1C211.487 29.4733 211.627 30.0067 211.627 30.7C211.627 31.3933 211.46 31.92 211.127 32.28C210.793 32.64 210.253 32.8533 209.507 32.92V32.98C210.427 33.0467 211.067 33.3 211.427 33.74C211.8 34.18 211.987 34.7933 211.987 35.58C211.987 36.26 211.847 36.7867 211.567 37.16C211.3 37.52 210.867 37.78 210.267 37.94C209.68 38.0867 208.907 38.16 207.947 38.16C207.2 38.16 206.547 38.1533 205.987 38.14C205.427 38.14 204.907 38.1267 204.427 38.1C203.96 38.0867 203.473 38.0667 202.967 38.04V28.2C203.42 28.16 203.853 28.1333 204.267 28.12C204.693 28.1067 205.153 28.1 205.647 28.1C206.153 28.0867 206.733 28.08 207.387 28.08ZM207.287 29.78C206.887 29.7667 206.52 29.76 206.187 29.76C205.853 29.76 205.54 29.76 205.247 29.76V32.22H207.487C208.18 32.22 208.667 32.14 208.947 31.98C209.227 31.8067 209.367 31.4667 209.367 30.96C209.367 30.4933 209.213 30.18 208.907 30.02C208.6 29.86 208.06 29.78 207.287 29.78ZM207.487 33.68H205.247V36.44C205.58 36.44 205.94 36.44 206.327 36.44C206.713 36.44 207.127 36.44 207.567 36.44C208.313 36.44 208.833 36.3533 209.127 36.18C209.433 35.9933 209.587 35.6267 209.587 35.08C209.587 34.5467 209.427 34.18 209.107 33.98C208.8 33.78 208.26 33.68 207.487 33.68ZM219.235 27.94C220.409 27.94 221.302 28.1867 221.915 28.68C222.542 29.16 222.855 30.0467 222.855 31.34V38H220.935L220.675 36.4C220.435 36.68 220.129 36.96 219.755 37.24C219.382 37.5067 218.949 37.7333 218.455 37.92C217.975 38.1067 217.435 38.2 216.835 38.2C215.942 38.2 215.209 37.9667 214.635 37.5C214.062 37.0333 213.775 36.3533 213.775 35.46V34.42C213.775 33.6467 214.029 33.0467 214.535 32.62C215.042 32.18 215.749 31.96 216.655 31.96H220.435V31.32C220.422 30.8 220.295 30.4267 220.055 30.2C219.815 29.96 219.362 29.84 218.695 29.84C218.175 29.84 217.529 29.86 216.755 29.9C215.995 29.94 215.229 29.9933 214.455 30.06L214.235 28.4C214.702 28.32 215.229 28.2467 215.815 28.18C216.402 28.1 216.995 28.04 217.595 28C218.195 27.96 218.742 27.94 219.235 27.94ZM216.175 35.14C216.175 35.94 216.615 36.3467 217.495 36.36C217.922 36.36 218.395 36.26 218.915 36.06C219.449 35.86 219.955 35.5667 220.435 35.18V33.46H217.315C216.902 33.4733 216.609 33.58 216.435 33.78C216.262 33.98 216.175 34.2533 216.175 34.6V35.14ZM233.824 28.18V30.08H230.444V38H228.024V30.08H224.624V28.18H233.824ZM239.905 27.94C241.492 27.94 242.632 28.22 243.325 28.78C244.019 29.3267 244.372 30.14 244.385 31.22C244.385 32.1133 244.172 32.7933 243.745 33.26C243.332 33.7133 242.625 33.94 241.625 33.94H237.645C237.739 34.8867 237.992 35.5133 238.405 35.82C238.819 36.1267 239.459 36.28 240.325 36.28C240.819 36.28 241.385 36.26 242.025 36.22C242.679 36.18 243.305 36.1267 243.905 36.06L244.145 37.6C243.785 37.7467 243.372 37.8733 242.905 37.98C242.439 38.0733 241.952 38.14 241.445 38.18C240.939 38.22 240.465 38.24 240.025 38.24C238.239 38.24 236.965 37.84 236.205 37.04C235.459 36.2267 235.085 34.9133 235.085 33.1C235.085 31.8067 235.245 30.7867 235.565 30.04C235.899 29.28 236.419 28.74 237.125 28.42C237.832 28.1 238.759 27.94 239.905 27.94ZM239.985 29.74C239.412 29.74 238.952 29.8133 238.605 29.96C238.272 30.1067 238.025 30.38 237.865 30.78C237.719 31.1667 237.639 31.72 237.625 32.44H240.965C241.405 32.44 241.685 32.32 241.805 32.08C241.939 31.84 242.005 31.5467 242.005 31.2C242.005 30.6667 241.852 30.2933 241.545 30.08C241.239 29.8533 240.719 29.74 239.985 29.74ZM255.4 28.18V38H252.98V29.92H251.32C250.946 29.92 250.673 30.0067 250.5 30.18C250.34 30.34 250.24 30.6133 250.2 31C250.093 31.84 249.98 32.6933 249.86 33.56C249.74 34.4267 249.58 35.1667 249.38 35.78C249.153 36.6733 248.713 37.3 248.06 37.66C247.42 38.02 246.653 38.1667 245.76 38.1L245.5 36.3C246.006 36.1933 246.386 36.06 246.64 35.9C246.893 35.7267 247.086 35.46 247.22 35.1C247.34 34.74 247.446 34.3067 247.54 33.8C247.633 33.2933 247.713 32.76 247.78 32.2C247.846 31.6267 247.9 31.08 247.94 30.56C248.033 29.7733 248.28 29.18 248.68 28.78C249.093 28.38 249.713 28.18 250.54 28.18H255.4ZM262.562 27.94C264.148 27.94 265.288 28.22 265.982 28.78C266.675 29.3267 267.028 30.14 267.042 31.22C267.042 32.1133 266.828 32.7933 266.402 33.26C265.988 33.7133 265.282 33.94 264.282 33.94H260.302C260.395 34.8867 260.648 35.5133 261.062 35.82C261.475 36.1267 262.115 36.28 262.982 36.28C263.475 36.28 264.042 36.26 264.682 36.22C265.335 36.18 265.962 36.1267 266.562 36.06L266.802 37.6C266.442 37.7467 266.028 37.8733 265.562 37.98C265.095 38.0733 264.608 38.14 264.102 38.18C263.595 38.22 263.122 38.24 262.682 38.24C260.895 38.24 259.622 37.84 258.862 37.04C258.115 36.2267 257.742 34.9133 257.742 33.1C257.742 31.8067 257.902 30.7867 258.222 30.04C258.555 29.28 259.075 28.74 259.782 28.42C260.488 28.1 261.415 27.94 262.562 27.94ZM262.642 29.74C262.068 29.74 261.608 29.8133 261.262 29.96C260.928 30.1067 260.682 30.38 260.522 30.78C260.375 31.1667 260.295 31.72 260.282 32.44H263.622C264.062 32.44 264.342 32.32 264.462 32.08C264.595 31.84 264.662 31.5467 264.662 31.2C264.662 30.6667 264.508 30.2933 264.202 30.08C263.895 29.8533 263.375 29.74 262.642 29.74ZM278.495 28.18V38L276.315 38.02V32.28C276.315 32.04 276.322 31.8067 276.335 31.58C276.362 31.34 276.382 31.0867 276.395 30.82H276.355C276.262 31.0333 276.149 31.2667 276.015 31.52C275.882 31.76 275.749 31.9667 275.615 32.14L271.355 38H269.275V28.18H271.455V33.98C271.455 34.22 271.449 34.4467 271.435 34.66C271.422 34.8733 271.402 35.1133 271.375 35.38H271.415C271.522 35.1533 271.635 34.9333 271.755 34.72C271.889 34.5067 272.022 34.3133 272.155 34.14L276.435 28.18H278.495ZM275.355 23.82H277.015C277.069 24.3667 276.975 24.8667 276.735 25.32C276.495 25.76 276.129 26.12 275.635 26.4C275.155 26.6667 274.569 26.8 273.875 26.8C273.182 26.8 272.582 26.6667 272.075 26.4C271.582 26.12 271.215 25.76 270.975 25.32C270.735 24.8667 270.642 24.3667 270.695 23.82H272.355C272.329 24.42 272.449 24.86 272.715 25.14C272.982 25.42 273.369 25.56 273.875 25.56C274.355 25.56 274.729 25.42 274.995 25.14C275.262 24.86 275.382 24.42 275.355 23.82Z" fill="#6B6B6C"/>
</svg>
