<svg width="88" height="88" viewBox="0 0 88 88" fill="none" xmlns="http://www.w3.org/2000/svg">
<g filter="url(#filter0_d_1_463)">
<circle cx="44" cy="40" r="34" fill="#0B7572"/>
<circle cx="44" cy="40" r="32" stroke="#0B7572" stroke-width="4"/>
</g>
<path d="M43.7104 28.324C45.4584 28.324 46.9657 28.476 48.2324 28.78C49.4991 29.084 50.4744 29.6667 51.1584 30.528C51.8677 31.364 52.2224 32.6053 52.2224 34.252C52.2224 35.2907 52.0831 36.266 51.8044 37.178C51.5511 38.0647 51.0951 38.9893 50.4364 39.952C49.8031 40.9147 48.9037 42.0167 47.7384 43.258L40.5944 50.934C41.2531 50.8327 41.9244 50.7693 42.6084 50.744C43.2924 50.7187 43.9637 50.706 44.6224 50.706H53.0584V55H34.9704V52.34C34.9704 51.9347 35.0084 51.58 35.0844 51.276C35.1857 50.9467 35.3757 50.6427 35.6544 50.364L42.6084 42.688C44.2297 40.9907 45.4331 39.496 46.2184 38.204C47.0291 36.8867 47.4217 35.7087 47.3964 34.67C47.3457 33.6567 46.9657 33.0233 46.2564 32.77C45.5471 32.5167 44.5337 32.39 43.2164 32.39C42.3551 32.39 41.5444 32.4027 40.7844 32.428C40.0497 32.4533 39.2517 32.504 38.3904 32.58C37.5544 32.6307 36.5664 32.7193 35.4264 32.846L35.1984 29.274C37.0224 28.8687 38.5677 28.6153 39.8344 28.514C41.1264 28.3873 42.4184 28.324 43.7104 28.324Z" fill="white"/>
<defs>
<filter id="filter0_d_1_463" x="0" y="0" width="88" height="88" filterUnits="userSpaceOnUse" color-interpolation-filters="sRGB">
<feFlood flood-opacity="0" result="BackgroundImageFix"/>
<feColorMatrix in="SourceAlpha" type="matrix" values="0 0 0 0 0 0 0 0 0 0 0 0 0 0 0 0 0 0 127 0" result="hardAlpha"/>
<feOffset dy="4"/>
<feGaussianBlur stdDeviation="5"/>
<feColorMatrix type="matrix" values="0 0 0 0 0 0 0 0 0 0 0 0 0 0 0 0 0 0 0.12 0"/>
<feBlend mode="normal" in2="BackgroundImageFix" result="effect1_dropShadow_1_463"/>
<feBlend mode="normal" in="SourceGraphic" in2="effect1_dropShadow_1_463" result="shape"/>
</filter>
</defs>
</svg>
