<svg width="88" height="88" viewBox="0 0 88 88" fill="none" xmlns="http://www.w3.org/2000/svg">
<g filter="url(#filter0_d_1_474)">
<circle cx="44" cy="40" r="34" fill="#0B7572"/>
<circle cx="44" cy="40" r="32" stroke="#0B7572" stroke-width="4"/>
</g>
<path d="M43.4019 28.286C45.4033 28.286 47.0119 28.476 48.2279 28.856C49.4693 29.2107 50.3686 29.8313 50.9259 30.718C51.5086 31.6047 51.7999 32.8207 51.7999 34.366C51.7999 36.1393 51.5213 37.6213 50.9639 38.812C50.4319 39.9773 49.3806 40.6993 47.8099 40.978V41.13C49.5833 41.4087 50.7993 42.1053 51.4579 43.22C52.1166 44.3347 52.4586 45.8293 52.4839 47.704C52.5346 50.4147 51.9013 52.3907 50.5839 53.632C49.2666 54.8733 46.9866 55.494 43.7439 55.494C42.2746 55.494 40.7926 55.4307 39.2979 55.304C37.8286 55.1773 36.3973 55.0127 35.0039 54.81L35.2319 51.238C36.6506 51.3393 37.9173 51.4153 39.0319 51.466C40.1466 51.5167 41.2993 51.542 42.4899 51.542C44.4406 51.542 45.8086 51.238 46.5939 50.63C47.4046 49.9967 47.8099 48.8313 47.8099 47.134C47.8099 46.2727 47.6833 45.5253 47.4299 44.892C47.2019 44.2587 46.7586 43.7773 46.0999 43.448C45.4666 43.1187 44.5166 42.954 43.2499 42.954H38.3479V39.648H43.2499C44.4913 39.648 45.3906 39.458 45.9479 39.078C46.5306 38.698 46.8979 38.204 47.0499 37.596C47.2273 36.9627 47.3159 36.2913 47.3159 35.582C47.2906 34.6193 47.1259 33.8973 46.8219 33.416C46.5433 32.9347 46.0619 32.618 45.3779 32.466C44.7193 32.2887 43.8073 32.2 42.6419 32.2C41.3753 32.2 40.1339 32.2253 38.9179 32.276C37.7019 32.3013 36.6506 32.352 35.7639 32.428L35.4979 28.97C38.2086 28.514 40.8433 28.286 43.4019 28.286Z" fill="white"/>
<defs>
<filter id="filter0_d_1_474" x="0" y="0" width="88" height="88" filterUnits="userSpaceOnUse" color-interpolation-filters="sRGB">
<feFlood flood-opacity="0" result="BackgroundImageFix"/>
<feColorMatrix in="SourceAlpha" type="matrix" values="0 0 0 0 0 0 0 0 0 0 0 0 0 0 0 0 0 0 127 0" result="hardAlpha"/>
<feOffset dy="4"/>
<feGaussianBlur stdDeviation="5"/>
<feColorMatrix type="matrix" values="0 0 0 0 0 0 0 0 0 0 0 0 0 0 0 0 0 0 0.12 0"/>
<feBlend mode="normal" in2="BackgroundImageFix" result="effect1_dropShadow_1_474"/>
<feBlend mode="normal" in="SourceGraphic" in2="effect1_dropShadow_1_474" result="shape"/>
</filter>
</defs>
</svg>
